<svg width="28" height="28" viewBox="0 0 28 28" fill="none" xmlns="http://www.w3.org/2000/svg">
<path d="M10.6667 11.6667H7.33337V10.3334H10.6667V11.6667ZM10.6667 13.6667H7.33337V15.0001H10.6667V13.6667ZM19.7267 18.3334L17.1734 15.7801C16.64 16.1267 16.0134 16.3334 15.3334 16.3334C13.4934 16.3334 12 14.8401 12 13.0001C12 11.1601 13.4934 9.66675 15.3334 9.66675C17.1734 9.66675 18.6667 11.1601 18.6667 13.0001C18.6667 13.6801 18.46 14.3067 18.1134 14.8334L20.6667 17.3934L19.7267 18.3334ZM17.3334 13.0001C17.3334 11.9001 16.4334 11.0001 15.3334 11.0001C14.2334 11.0001 13.3334 11.9001 13.3334 13.0001C13.3334 14.1001 14.2334 15.0001 15.3334 15.0001C16.4334 15.0001 17.3334 14.1001 17.3334 13.0001ZM7.33337 18.3334H14V17.0001H7.33337V18.3334Z" fill="#E6F0FF"/>
<rect x="0.5" y="0.5" width="27" height="27" rx="13.5" stroke="#0066FF"/>
</svg>
