<svg width="86" height="24" viewBox="0 0 86 24" fill="none" xmlns="http://www.w3.org/2000/svg">
<g clip-path="url(#clip0_1820_169693)">
<path d="M32.8512 12.0178C32.8512 9.46008 32.1219 8.14699 30.6635 8.07508C30.0832 8.04769 29.5166 8.14014 28.9654 8.35414C28.5254 8.51164 28.2293 8.66743 28.0735 8.82493V14.9299C29.0064 15.5154 29.835 15.7876 30.5573 15.7448C32.086 15.6438 32.8512 14.4026 32.8512 12.0178ZM34.6503 12.1239C34.6503 13.4233 34.3456 14.5019 33.7328 15.3596C33.0497 16.3303 32.1031 16.8302 30.8929 16.8576C29.9805 16.8867 29.0407 16.6008 28.0735 16.0016V21.5501L26.5089 20.992V8.67599C26.7657 8.36098 27.0961 8.09049 27.4966 7.86108C28.4279 7.31838 29.5594 7.03933 30.8911 7.02563L30.9134 7.04789C32.1305 7.03248 33.0686 7.53238 33.7276 8.54588C34.3422 9.47549 34.6503 10.667 34.6503 12.1239Z" fill="#646464"/>
<path d="M44.2089 15.7653C44.2089 17.5081 44.0343 18.7151 43.6851 19.3862C43.3342 20.0573 42.6666 20.5931 41.6806 20.992C40.8811 21.307 40.0167 21.4782 39.0889 21.5073L38.8304 20.5212C39.7736 20.3928 40.4378 20.2644 40.8229 20.136C41.5813 19.8792 42.1017 19.4855 42.3875 18.9582C42.6169 18.5285 42.7299 17.7084 42.7299 16.4946V16.0872C41.66 16.5734 40.5388 16.8148 39.3662 16.8148C38.5959 16.8148 37.9163 16.5734 37.3309 16.0872C36.6735 15.5582 36.3448 14.8871 36.3448 14.0739V7.56149L37.9094 7.02563V13.5808C37.9094 14.281 38.1354 14.8203 38.5873 15.1987C39.0392 15.577 39.6247 15.7585 40.3419 15.7448C41.0592 15.7294 41.8278 15.452 42.6443 14.9093V7.26189H44.2089V15.7653Z" fill="#646464"/>
<path d="M50.3233 16.7735C50.1367 16.7889 49.9655 16.7957 49.808 16.7957C48.923 16.7957 48.2332 16.5851 47.7402 16.1623C47.2489 15.7394 47.0024 15.1556 47.0024 14.4109V8.24777H45.9308V7.26337H47.0024V4.64917L48.5653 4.09277V7.26337H50.3233V8.24777H48.5653V14.3681C48.5653 14.9553 48.7227 15.3713 49.0377 15.6144C49.3082 15.8147 49.7378 15.9295 50.3233 15.9586V16.7735Z" fill="#646464"/>
<path d="M59.793 16.6446H58.2284V10.6047C58.2284 9.9901 58.0846 9.46109 57.7987 9.0194C57.4684 8.5195 57.0096 8.26955 56.4207 8.26955C55.7035 8.26955 54.8065 8.6479 53.7298 9.4046V16.6446H52.1652V2.20741L53.7298 1.71436V8.29009C54.7295 7.5625 55.8216 7.19785 57.0079 7.19785C57.8364 7.19785 58.5074 7.4769 59.021 8.0333C59.5362 8.58969 59.793 9.28305 59.793 10.1116V16.6446Z" fill="#646464"/>
<path d="M68.1096 11.7713C68.1096 10.7886 67.923 9.9771 67.5516 9.3351C67.1099 8.55273 66.4235 8.14014 65.4957 8.09734C63.7805 8.19663 62.9245 9.42584 62.9245 11.7815C62.9245 12.8618 63.1026 13.764 63.4621 14.4882C63.9208 15.4109 64.609 15.8663 65.5265 15.8509C67.2486 15.8372 68.1096 14.4779 68.1096 11.7713ZM69.8231 11.7815C69.8231 13.1802 69.4654 14.3444 68.7516 15.274C67.9658 16.3149 66.8805 16.837 65.4957 16.837C64.1228 16.837 63.0529 16.3149 62.2809 15.274C61.5808 14.3444 61.2316 13.1802 61.2316 11.7815C61.2316 10.4667 61.6099 9.36078 62.3665 8.46028C63.1659 7.50499 64.217 7.02563 65.5162 7.02563C66.8155 7.02563 67.8734 7.50499 68.6882 8.46028C69.4448 9.36078 69.8231 10.4667 69.8231 11.7815Z" fill="#646464"/>
<path d="M78.7921 16.6436H77.2276V10.2613C77.2276 9.56109 77.017 9.01496 76.5959 8.6212C76.1748 8.22916 75.6133 8.03913 74.9132 8.05454C74.1703 8.06824 73.4633 8.31134 72.7923 8.78213V16.6436H71.2277V8.58868C72.1281 7.93299 72.9566 7.50499 73.7132 7.30469C74.427 7.11808 75.057 7.02563 75.5996 7.02563C75.9711 7.02563 76.3203 7.06159 76.649 7.13349C77.2635 7.27558 77.7633 7.53923 78.1485 7.92614C78.5782 8.35414 78.7921 8.86773 78.7921 9.46864V16.6436Z" fill="#646464"/>
<path d="M11.0523 2.26457C10.2473 2.26831 9.47859 2.33697 8.80217 2.45667C6.80951 2.80875 6.44773 3.54566 6.44773 4.90467V6.69949H11.1566V7.29777H6.44773H4.68052C3.31199 7.29777 2.11366 8.12042 1.73884 9.68539C1.30649 11.4792 1.28731 12.5986 1.73884 14.4716C2.07357 15.8658 2.87293 16.8592 4.24147 16.8592H5.86049V14.7076C5.86049 13.1532 7.20526 11.7821 8.80217 11.7821H13.5056C14.8148 11.7821 15.86 10.704 15.86 9.38899V4.90467C15.86 3.6284 14.7834 2.66968 13.5056 2.45667C12.6966 2.322 11.8573 2.26082 11.0523 2.26457ZM8.50581 3.70811C8.9922 3.70811 9.38941 4.11185 9.38941 4.60827C9.38941 5.10294 8.9922 5.50294 8.50581 5.50294C8.01767 5.50294 7.6222 5.10294 7.6222 4.60827C7.6222 4.11185 8.01767 3.70811 8.50581 3.70811Z" fill="url(#paint0_linear_1820_169693)"/>
<path d="M16.4498 7.29883V9.39005C16.4498 11.0113 15.0754 12.3759 13.5082 12.3759H8.80476C7.51642 12.3759 6.45032 13.4787 6.45032 14.769V19.2534C6.45032 20.5296 7.56 21.2803 8.80476 21.6465C10.2953 22.0848 11.7247 22.164 13.5082 21.6465C14.6936 21.3032 15.8626 20.6124 15.8626 19.2534V17.4585H11.1592V16.8603H15.8626H18.217C19.5856 16.8603 20.0955 15.9056 20.5715 14.4727C21.0631 12.9975 21.0422 11.5788 20.5715 9.68644C20.2333 8.32392 19.5873 7.29883 18.217 7.29883H16.4498ZM13.8045 18.6551C14.2927 18.6551 14.6881 19.0551 14.6881 19.5498C14.6881 20.0462 14.2927 20.4499 13.8045 20.4499C13.3181 20.4499 12.9209 20.0462 12.9209 19.5498C12.9209 19.0551 13.3181 18.6551 13.8045 18.6551Z" fill="url(#paint1_linear_1820_169693)"/>
<path d="M81.8384 5.86809H82.1127V4.14747H82.7626V3.94238H81.1886V4.14747H81.8384V5.86809ZM83.0058 5.86809H83.2402V4.29663L83.7488 5.86789H84.0098L84.5398 4.30195V5.86809H84.7955V3.94238H84.4573L83.878 5.59215L83.384 3.94238H83.0058V5.86809Z" fill="#646464"/>
</g>
<defs>
<linearGradient id="paint0_linear_1820_169693" x1="1.40735" y1="2.2644" x2="12.2665" y2="11.5169" gradientUnits="userSpaceOnUse">
<stop stop-color="#5A9FD4"/>
<stop offset="1" stop-color="#306998"/>
</linearGradient>
<linearGradient id="paint1_linear_1820_169693" x1="13.6914" y1="19.3989" x2="9.79533" y2="13.9399" gradientUnits="userSpaceOnUse">
<stop stop-color="#FFD43B"/>
<stop offset="1" stop-color="#FFE873"/>
</linearGradient>
<clipPath id="clip0_1820_169693">
<rect width="84.3429" height="21.6" fill="white" transform="translate(0.962036 1.2002)"/>
</clipPath>
</defs>
</svg>
