<svg width="74" height="24" viewBox="0 0 74 24" fill="none" xmlns="http://www.w3.org/2000/svg">
<path d="M2.71126 19.027C1.96914 19.027 1.36682 18.4238 1.36682 17.6797V13.8848C1.36682 13.1408 1.9701 12.5375 2.71126 12.5375C3.06803 12.5388 3.40979 12.6812 3.66189 12.9337C3.91398 13.1861 4.05591 13.5281 4.05667 13.8848V17.6807C4.05667 18.4247 3.45339 19.027 2.71126 19.027ZM7.03953 20.4826C6.29645 20.4826 5.69509 19.8793 5.69509 19.1352V12.4322C5.69509 11.6872 6.29645 11.0849 7.03953 11.0849C7.78261 11.0849 8.38493 11.6882 8.38493 12.4322V19.1352C8.38493 19.8802 7.78166 20.4826 7.03953 20.4826ZM11.3678 21.9055C10.6247 21.9055 10.0234 21.3022 10.0234 20.5582V11.0016C10.0234 10.2566 10.6266 9.65426 11.3678 9.65426C12.109 9.65426 12.7122 10.2575 12.7122 11.0016V20.5563C12.7122 21.3013 12.1109 21.9036 11.3678 21.9036V21.9055ZM22.7151 6.29699L3.94463 0.670257C3.02344 0.382983 2.19226 0.95753 2.19226 1.85095V11.2419C2.36346 11.2077 2.53762 11.1904 2.71222 11.1902C2.88714 11.1904 3.06162 11.2077 3.23315 11.2419V1.85765C3.23315 1.79445 3.23315 1.64699 3.46297 1.64699C3.52541 1.64746 3.58741 1.65747 3.64682 1.67667L22.4183 7.3034C22.8262 7.42597 23.1288 7.84156 23.1288 8.13171V20.1685C23.1288 20.2374 23.1288 20.3772 22.899 20.3772C22.8368 20.3771 22.7751 20.3671 22.7161 20.3475L18.3859 19.0519V20.1388L22.4077 21.3482C22.5639 21.3957 22.7262 21.4206 22.8894 21.4219C23.0569 21.4296 23.2242 21.4024 23.3807 21.3423C23.5373 21.2822 23.6797 21.1903 23.799 21.0725C23.9183 20.9547 24.012 20.8135 24.0742 20.6578C24.1363 20.502 24.1656 20.3351 24.1601 20.1675V8.12022C24.1601 7.33979 23.5214 6.53734 22.7046 6.29316L22.7151 6.29699ZM15.6961 23.3993C14.953 23.3993 14.3516 22.7961 14.3516 22.052V9.51062C14.3516 8.76658 14.9549 8.16235 15.6961 8.16235C16.4372 8.16235 17.0405 8.76563 17.0405 9.51062V22.0626C17.0405 22.8076 16.4391 23.4099 15.6961 23.4099V23.3993Z" fill="#333333"/>
<path d="M30.4099 12.9491V16.1004H29.4332V7.76172H31.7246C32.6159 7.76172 33.3066 7.97905 33.7912 8.41305C34.2759 8.84705 34.5266 9.45972 34.5266 10.2504C34.5266 11.0411 34.2546 11.6884 33.7092 12.1924C33.1639 12.6964 32.4292 12.9484 31.5092 12.9484H30.4106L30.4099 12.9491ZM30.4099 8.64572V12.0644H31.4332C32.1079 12.0644 32.6226 11.9111 32.9766 11.6024C33.3306 11.2937 33.5086 10.8591 33.5086 10.2971C33.5086 9.19705 32.8579 8.64572 31.5552 8.64572H30.4099ZM38.1812 16.2404C37.3012 16.2404 36.5986 15.9617 36.0732 15.4057C35.5479 14.8497 35.2852 14.1124 35.2852 13.1937C35.2852 12.1937 35.5519 11.4117 36.1052 10.8504C36.6586 10.2891 37.3839 10.0004 38.3146 10.0004C39.2026 10.0004 39.8946 10.2671 40.3933 10.8204C40.8919 11.3737 41.1399 12.1251 41.1399 13.0871C41.1399 14.0377 40.8713 14.7977 40.3346 15.3697C39.7979 15.9417 39.0779 16.2271 38.1812 16.2271V16.2404ZM38.2506 10.8097C37.6372 10.8097 37.1539 11.0184 36.7972 11.4351C36.4406 11.8517 36.2626 12.4264 36.2626 13.1591C36.2626 13.8644 36.4426 14.4211 36.7959 14.8277C37.1492 15.2344 37.6392 15.4384 38.2439 15.4384C38.8606 15.4384 39.3339 15.2384 39.6652 14.8384C39.9966 14.4384 40.1626 13.8717 40.1626 13.1351C40.1626 12.3911 39.9959 11.8171 39.6652 11.4137C39.3346 11.0104 38.8606 10.8091 38.2439 10.8091L38.2506 10.8097ZM50.0059 10.1457L48.2206 16.0991H47.2326L46.0059 11.8371C45.9593 11.6744 45.9286 11.4904 45.9126 11.2837H45.8893C45.8672 11.4652 45.8263 11.644 45.7673 11.8171L44.4359 16.0837H43.4826L41.6799 10.1304H42.6799L43.9133 14.6084C43.9519 14.7437 43.9799 14.9217 43.9946 15.1431H44.0413C44.0559 14.9575 44.091 14.7742 44.1459 14.5964L45.5179 10.1297H46.3899L47.6233 14.6184C47.6619 14.7617 47.6913 14.9404 47.7099 15.1537H47.7566C47.7646 15.0024 47.7966 14.8244 47.8553 14.6184L49.0646 10.1297H50.0066L50.0059 10.1457ZM55.726 13.3617H51.5146C51.5299 14.0244 51.7146 14.5364 52.0493 14.8964C52.3839 15.2564 52.8593 15.4297 53.4493 15.4297C54.1199 15.4297 54.736 15.2097 55.2986 14.7664V15.6617C54.7753 16.0417 54.0833 16.2317 53.2226 16.2317C52.3813 16.2317 51.7206 15.9611 51.2399 15.4204C50.7593 14.8797 50.5186 14.1204 50.5186 13.1391C50.5186 12.2057 50.7813 11.4571 51.3066 10.8737C51.8319 10.2904 52.4839 9.99905 53.2633 9.99905C54.0426 9.99905 54.6453 10.2511 55.072 10.7544C55.4986 11.2577 55.712 11.9584 55.712 12.8544V13.3544L55.726 13.3617ZM54.7479 12.5537C54.7439 12.0037 54.6119 11.5737 54.3499 11.2691C54.0879 10.9644 53.7246 10.8024 53.2599 10.8024C53.046 10.7988 52.8337 10.8397 52.6365 10.9227C52.4393 11.0057 52.2616 11.1289 52.1146 11.2844C51.8013 11.6064 51.6066 12.0271 51.5326 12.5464L54.7479 12.5537ZM60.2146 11.1111C60.048 10.9831 59.8146 10.9191 59.4933 10.9191C59.0933 10.9191 58.7466 11.1111 58.4733 11.4944C58.2 11.8777 58.0633 12.4011 58.0633 13.0651V16.0997H57.11V10.1464H58.0633V11.3731H58.0866C58.222 10.9544 58.43 10.6284 58.7086 10.3931C58.9873 10.1577 59.2993 10.0417 59.6453 10.0417C59.8933 10.0417 60.0826 10.0684 60.2153 10.1231L60.2146 11.1111ZM64.64 16.1004V7.76172H67.0133C67.7346 7.76172 68.3066 7.93839 68.7286 8.29105C69.1506 8.64372 69.362 9.10305 69.362 9.66905C69.362 10.1357 69.234 10.5524 68.978 10.9024C68.722 11.2524 68.37 11.4991 67.92 11.6471V11.6697C68.482 11.7364 68.9313 11.9477 69.2686 12.3064C69.606 12.6651 69.774 13.1311 69.774 13.7044C69.774 14.4177 69.5186 14.9951 69.0073 15.4377C68.496 15.8804 67.85 16.1004 67.0706 16.1004H64.64ZM65.6173 8.64705V11.3337H66.6173C67.152 11.3337 67.5733 11.2044 67.8793 10.9471C68.1853 10.6897 68.346 10.3257 68.346 9.85639C68.346 9.04639 67.8126 8.64105 66.746 8.64105L65.6173 8.64705ZM65.6173 12.2177V15.2177H66.9506C67.524 15.2177 67.9693 15.0817 68.2853 14.8177C68.6013 14.5537 68.752 14.1751 68.752 13.7017C68.752 12.7171 68.0813 12.2244 66.74 12.2244L65.6173 12.2177ZM72.3213 16.1004H71.3447V7.76172H72.3213V16.1004Z" fill="#333333"/>
</svg>
