<svg width="73" height="24" viewBox="0 0 73 24" fill="none" xmlns="http://www.w3.org/2000/svg">
<path d="M12.2061 1.58381H13.6814V3.55738C16.321 3.57218 18.9583 3.53015 21.5956 3.57218C22.1581 3.51535 22.5996 3.9521 22.5479 4.51458C22.5897 9.37452 22.538 14.2368 22.5725 19.0968C22.5479 19.5951 22.6219 20.1477 22.3332 20.5892C21.973 20.8458 21.5066 20.8138 21.0874 20.8333C18.6177 20.8213 16.1507 20.8262 13.6814 20.8262V22.7998H12.1396C8.38509 22.114 4.62029 21.485 0.858257 20.8262C0.855692 15.0709 0.858257 9.31531 0.858257 3.56232C4.63983 2.90117 8.42436 2.25739 12.2063 1.58381H12.2061Z" fill="#2A5699"/>
<path d="M5.95429 8.65657C6.42302 8.62953 6.89174 8.6098 7.36047 8.58512C7.68848 10.2504 8.02398 11.913 8.37922 13.5708C8.65809 11.8587 8.96656 10.1516 9.26477 8.44205C9.75817 8.42487 10.2516 8.39764 10.7426 8.36803C10.1851 10.7584 9.69658 13.1688 9.08715 15.5444C8.67506 15.7591 8.05832 15.5345 7.56986 15.569C7.24165 13.9361 6.85937 12.3126 6.56571 10.6722C6.27717 12.2659 5.90219 13.8447 5.57161 15.4287C5.09796 15.4041 4.62192 15.3744 4.1455 15.3423C3.73619 13.1713 3.25502 11.0152 2.87274 8.83933C3.29451 8.8196 3.71882 8.80223 4.14077 8.78743C4.39476 10.3588 4.68351 11.9231 4.90554 13.4968C5.25386 11.8836 5.60891 10.2702 5.95429 8.65657ZM13.6808 4.29752H21.8219V20.0862H13.6808V18.1126H20.095V17.1258H13.6808V15.8923H20.095V14.9055H13.6808V13.672H20.095V12.6852H13.6808V11.4518H20.095V10.465H13.6808V9.23147H20.095V8.24469H13.6808V7.0112H20.095V6.02441H13.6808V4.29752Z" fill="white"/>
<path d="M33.1977 14.7905L35.5684 6.45615H36.7169L36.0524 9.69639L33.5013 18.3999H32.361L33.1977 14.7905ZM30.745 6.45615L32.6317 14.6265L33.1977 18.3999H32.0657L29.17 6.45615H30.745ZM39.7849 14.6183L41.6306 6.45615H43.2138L40.3263 18.3999H39.1942L39.7849 14.6183ZM36.8891 6.45615L39.1942 14.7905L40.0309 18.3999H38.8907L36.4298 9.69639L35.7571 6.45615H36.8891ZM44.0751 14.0604V13.8718C44.0751 13.2319 44.1681 12.6386 44.354 12.0917C44.5399 11.5394 44.8079 11.0608 45.1579 10.6562C45.5079 10.246 45.9317 9.92881 46.4294 9.70459C46.927 9.4749 47.4849 9.36006 48.1028 9.36006C48.7263 9.36006 49.2868 9.4749 49.7845 9.70459C50.2876 9.92881 50.7141 10.246 51.0641 10.6562C51.4196 11.0608 51.6903 11.5394 51.8763 12.0917C52.0622 12.6386 52.1552 13.2319 52.1552 13.8718V14.0604C52.1552 14.7003 52.0622 15.2937 51.8763 15.8405C51.6903 16.3874 51.4196 16.8659 51.0641 17.2761C50.7141 17.6808 50.2903 17.9979 49.7927 18.2276C49.3005 18.4519 48.7427 18.564 48.1192 18.564C47.4958 18.564 46.9352 18.4519 46.4376 18.2276C45.9399 17.9979 45.5134 17.6808 45.1579 17.2761C44.8079 16.8659 44.5399 16.3874 44.354 15.8405C44.1681 15.2937 44.0751 14.7003 44.0751 14.0604ZM45.5927 13.8718V14.0604C45.5927 14.5034 45.6446 14.9218 45.7485 15.3155C45.8524 15.7038 46.0083 16.0483 46.2161 16.3491C46.4294 16.6499 46.6946 16.8878 47.0118 17.0628C47.329 17.2323 47.6981 17.3171 48.1192 17.3171C48.5349 17.3171 48.8985 17.2323 49.2102 17.0628C49.5274 16.8878 49.7899 16.6499 49.9977 16.3491C50.2056 16.0483 50.3614 15.7038 50.4653 15.3155C50.5747 14.9218 50.6294 14.5034 50.6294 14.0604V13.8718C50.6294 13.4343 50.5747 13.0214 50.4653 12.6331C50.3614 12.2394 50.2028 11.8921 49.9895 11.5913C49.7817 11.2851 49.5192 11.0444 49.202 10.8694C48.8903 10.6944 48.5239 10.6069 48.1028 10.6069C47.6872 10.6069 47.3208 10.6944 47.0036 10.8694C46.6919 11.0444 46.4294 11.2851 46.2161 11.5913C46.0083 11.8921 45.8524 12.2394 45.7485 12.6331C45.6446 13.0214 45.5927 13.4343 45.5927 13.8718ZM55.5759 10.9187V18.3999H54.0583V9.52412H55.5349L55.5759 10.9187ZM58.3485 9.4749L58.3403 10.8858C58.2145 10.8585 58.0942 10.8421 57.9794 10.8366C57.87 10.8257 57.7442 10.8202 57.602 10.8202C57.252 10.8202 56.9431 10.8749 56.6751 10.9843C56.4071 11.0937 56.1802 11.2468 55.9942 11.4437C55.8083 11.6405 55.6606 11.8757 55.5513 12.1491C55.4474 12.4171 55.379 12.7124 55.3462 13.0351L54.9196 13.2812C54.9196 12.7452 54.9716 12.2421 55.0755 11.7718C55.1849 11.3015 55.3516 10.8858 55.5759 10.5249C55.8001 10.1585 56.0845 9.87412 56.429 9.67178C56.779 9.46396 57.1946 9.36006 57.6759 9.36006C57.7852 9.36006 57.911 9.37373 58.0532 9.40107C58.1954 9.42295 58.2938 9.44756 58.3485 9.4749ZM65.1817 16.6772V5.7999H66.7075V18.3999H65.313L65.1817 16.6772ZM59.2099 14.0604V13.8882C59.2099 13.2101 59.2919 12.5948 59.4559 12.0425C59.6255 11.4847 59.8634 11.0062 60.1696 10.6069C60.4813 10.2077 60.8505 9.90146 61.277 9.68818C61.7091 9.46943 62.1903 9.36006 62.7208 9.36006C63.2786 9.36006 63.7653 9.4585 64.1809 9.65537C64.602 9.84678 64.9575 10.1284 65.2474 10.5003C65.5427 10.8667 65.7751 11.3097 65.9446 11.8292C66.1142 12.3487 66.2317 12.9366 66.2974 13.5929V14.3476C66.2372 14.9983 66.1196 15.5835 65.9446 16.103C65.7751 16.6226 65.5427 17.0655 65.2474 17.4319C64.9575 17.7983 64.602 18.08 64.1809 18.2769C63.7599 18.4683 63.2677 18.564 62.7044 18.564C62.1849 18.564 61.7091 18.4519 61.277 18.2276C60.8505 18.0034 60.4813 17.689 60.1696 17.2843C59.8634 16.8796 59.6255 16.4038 59.4559 15.8569C59.2919 15.3046 59.2099 14.7058 59.2099 14.0604ZM60.7356 13.8882V14.0604C60.7356 14.5034 60.7794 14.919 60.8669 15.3073C60.9599 15.6956 61.102 16.0374 61.2934 16.3327C61.4849 16.628 61.7282 16.8604 62.0235 17.03C62.3188 17.194 62.6716 17.2761 63.0817 17.2761C63.5849 17.2761 63.9977 17.1694 64.3204 16.9562C64.6485 16.7429 64.911 16.4612 65.1079 16.1112C65.3048 15.7612 65.4579 15.3812 65.5673 14.971V12.994C65.5017 12.6933 65.4059 12.4034 65.2802 12.1245C65.1599 11.8401 65.0013 11.5886 64.8044 11.3698C64.613 11.1456 64.3751 10.9679 64.0907 10.8366C63.8118 10.7054 63.4809 10.6397 63.0981 10.6397C62.6825 10.6397 62.3243 10.7272 62.0235 10.9022C61.7282 11.0718 61.4849 11.3069 61.2934 11.6077C61.102 11.903 60.9599 12.2476 60.8669 12.6413C60.7794 13.0296 60.7356 13.4452 60.7356 13.8882Z" fill="#2A5699"/>
</svg>
