<svg width="28" height="28" viewBox="0 0 28 28" fill="none" xmlns="http://www.w3.org/2000/svg">
<path d="M14 7.33325C10.32 7.33325 7.33337 10.3199 7.33337 13.9999C7.33337 17.6799 10.32 20.6666 14 20.6666H19.3334C20.0667 20.6666 20.6667 20.0666 20.6667 19.3333V13.9999C20.6667 10.3199 17.68 7.33325 14 7.33325ZM14 19.3333C12.0734 19.3333 10.38 18.3066 9.44671 16.7733L11.4134 14.8066L13.6067 16.6666L16.6667 13.6133V14.6666H18V11.3333H14.6667V12.6666H15.72L13.5334 14.8533L11.3334 12.9999L8.87337 15.4666C8.74004 14.9999 8.66671 14.5066 8.66671 13.9999C8.66671 11.0599 11.06 8.66659 14 8.66659C16.94 8.66659 19.3334 11.0599 19.3334 13.9999C19.3334 16.9399 16.94 19.3333 14 19.3333ZM19 19.6666C18.6334 19.6666 18.3334 19.3666 18.3334 18.9999C18.3334 18.6333 18.6334 18.3333 19 18.3333C19.3667 18.3333 19.6667 18.6333 19.6667 18.9999C19.6667 19.3666 19.3667 19.6666 19 19.6666Z" fill="#FDF3ED"/>
<rect x="0.5" y="0.5" width="27" height="27" rx="13.5" stroke="#E87730"/>
</svg>
