<svg width="83" height="24" viewBox="0 0 83 24" fill="none" xmlns="http://www.w3.org/2000/svg">
<g clip-path="url(#clip0_1820_169632)">
<path d="M10.1081 12.8669L13.1531 11.0999L16.1531 12.8669L13.1531 14.5964L10.1081 12.9044V12.8669ZM0.971558 7.64092L13.1591 0.722168L22.2191 5.87317L19.2191 11.0992L13.1666 7.64017L4.03156 12.8287L0.971558 7.64092Z" fill="#F6BD3A"/>
<path d="M10.1084 19.7822V16.3232L13.1084 14.5937L16.1534 12.8642V16.3232L13.1534 18.0527V21.5117L10.1084 23.2787V19.7822ZM10.1084 12.8649L7.06343 11.1354L4.01843 12.8274V9.3677L13.1534 4.1792V11.0972L10.1084 12.8649ZM19.1684 9.36845V7.63895L22.2134 5.87195L22.2509 9.33095L19.2059 11.0979L19.1684 9.36845Z" fill="#EB8C23"/>
<path d="M7.06156 21.4359V11.1347L10.0616 9.4427L10.0991 12.8642L13.1441 14.5562V18.0527L10.0991 16.4357V23.2779L7.06156 21.4359ZM2.47606 11.9244L0.971558 11.0222V7.6397L4.01656 9.3692V12.8282L2.47606 11.9244ZM13.1531 7.6382V4.1792L19.1681 7.6382L19.2056 11.0972L13.1531 7.6382Z" fill="#E35A2B"/>
<path d="M28.1033 8.83389V16.7839H26.7061V8.83389H23.9911V7.46289H30.8161V8.83314L28.1033 8.83389ZM35.4421 11.7214C35.5276 12.0671 35.5657 12.4229 35.5553 12.7789L31.0471 14.1154C31.0823 14.4529 31.0726 14.3156 31.1783 14.5556C31.2841 14.7956 31.4183 14.9921 31.5773 15.1556C31.7363 15.3191 31.9148 15.4256 32.1023 15.5006C32.2898 15.5756 32.5051 15.6146 32.7143 15.6131C33.0143 15.6131 33.2753 15.5644 33.5191 15.4669C33.7742 15.3628 34.0137 15.224 34.2308 15.0544L35.0423 15.9319C34.7422 16.2216 34.39 16.4519 34.0043 16.6106C33.6218 16.7704 33.1658 16.8506 32.6341 16.8506C32.2337 16.8522 31.8374 16.7708 31.4701 16.6114C31.0951 16.4516 30.7801 16.2169 30.5056 15.9064C30.2311 15.5959 30.0136 15.2149 29.8531 14.7619C29.6926 14.3089 29.6131 13.7869 29.6131 13.2184C29.6131 12.6244 29.6881 12.0934 29.8396 11.6486C29.9911 11.2039 30.1996 10.8236 30.4651 10.5109C30.7285 10.2069 31.0586 9.96796 31.4296 9.81264C31.8239 9.64964 32.2472 9.56825 32.6738 9.57339C33.1703 9.57339 33.6038 9.66639 33.9713 9.85314C34.3388 10.0399 34.6463 10.2926 34.8893 10.6031C35.1421 10.9394 35.3272 11.3214 35.4346 11.7281L35.4421 11.7214ZM34.1318 12.0364C34.1138 11.7964 33.9488 11.5114 33.8123 11.3216C33.6837 11.1521 33.5113 11.0209 33.3136 10.9421C33.1096 10.8611 32.8321 10.8274 32.5883 10.8371C32.1383 10.8574 31.6133 11.0156 31.3643 11.3621C31.1153 11.7086 31.0366 12.3094 31.0463 12.9499L34.1318 12.0364ZM40.5046 16.6969V12.7444C40.5046 12.0349 40.3771 11.5444 40.1251 11.2541C39.8731 10.9639 39.5198 10.8281 39.0751 10.8281C38.6138 10.8281 38.2591 10.9834 38.0101 11.2931C37.7611 11.6029 37.6373 12.0431 37.6373 12.6101V16.6946H36.2596V9.71214H37.6298V10.3774C37.8076 10.1201 38.0536 9.92739 38.3686 9.77889C38.6836 9.63039 39.0226 9.56589 39.3863 9.56589C40.2023 9.56589 40.8211 9.82839 41.2426 10.3511C41.6641 10.8739 41.8748 11.6561 41.8748 12.6926V16.6976L40.5046 16.6969ZM47.5036 14.8609C47.5036 15.2509 47.4301 15.5771 47.2838 15.8389C47.1446 16.0932 46.9459 16.3101 46.7048 16.4711C46.4648 16.6309 46.1798 16.7464 45.8798 16.8161C45.5543 16.8883 45.2218 16.924 44.8883 16.9226C44.4083 16.9226 43.9328 16.8386 43.4581 16.6699C43.0149 16.5175 42.5959 16.3023 42.2138 16.0309L42.8318 15.0004C43.1436 15.2227 43.4866 15.3976 43.8496 15.5194C44.1998 15.6349 44.5396 15.6919 44.8673 15.6919C45.7186 15.6919 46.1446 15.4346 46.1446 14.9194C46.1446 14.6531 46.0006 14.4394 45.7126 14.2819C45.4246 14.1244 45.0271 13.9444 44.5216 13.7569C44.1945 13.6361 43.8767 13.4917 43.5706 13.3249C43.3096 13.1779 43.0958 13.0211 42.9316 12.8524C42.7732 12.6927 42.6527 12.4994 42.5791 12.2869C42.5078 12.0784 42.4726 11.8369 42.4726 11.5616C42.4726 11.2511 42.5303 10.9766 42.6451 10.7366C42.758 10.5001 42.9269 10.2947 43.1371 10.1381C43.3501 9.97839 43.6021 9.85839 43.8871 9.77814C44.1721 9.69789 44.4991 9.65814 44.8448 9.65814C45.2948 9.65814 45.7163 9.72939 46.1288 9.87114C46.5413 10.0129 46.9028 10.1996 47.2133 10.4299L46.6246 11.4754C46.3411 11.2714 46.0523 11.1206 45.7598 11.0231C45.4673 10.9256 45.1598 10.8769 44.8148 10.8769C44.4698 10.8769 44.2336 10.9369 44.0828 11.0569C44.0115 11.11 43.9537 11.1793 43.9144 11.2591C43.875 11.3389 43.8551 11.4269 43.8563 11.5159C43.8555 11.6008 43.8737 11.6849 43.9096 11.7619C43.9448 11.8369 44.0116 11.9149 44.1091 11.9869C44.231 12.0822 44.3625 12.1646 44.5013 12.2329C44.7119 12.3378 44.9271 12.4332 45.1463 12.5186L46.1708 12.9514C46.4372 13.0721 46.6858 13.2288 46.9096 13.4171C47.1029 13.5817 47.2554 13.7889 47.3551 14.0224C47.4526 14.2526 47.5013 14.5324 47.5013 14.8609H47.5036ZM53.8771 13.2506C53.8771 13.8281 53.7976 14.3441 53.6371 14.8009C53.4766 15.2576 53.2621 15.6439 52.9718 15.9581C52.6957 16.2675 52.3553 16.5128 51.9743 16.6766C51.5993 16.8416 51.1763 16.9226 50.7233 16.9226C50.2733 16.9226 49.8721 16.8364 49.4993 16.6631C49.1264 16.4893 48.7952 16.2374 48.5281 15.9244C48.2528 15.6056 48.0383 15.2239 47.8831 14.7799C47.7278 14.3359 47.6581 13.8394 47.6581 13.2896C47.6581 12.7219 47.7376 12.2119 47.8981 11.7596C48.0586 11.3074 48.2776 10.9234 48.5566 10.6084C48.8261 10.2973 49.1629 10.0517 49.5413 9.88989C49.9261 9.72639 50.3288 9.64389 50.7713 9.64389C51.1977 9.64033 51.6198 9.72884 52.0088 9.90339C52.3863 10.0734 52.724 10.3204 53.0003 10.6286C53.2801 10.9391 53.4968 11.3186 53.6528 11.7664C53.8088 12.2141 53.8778 12.7091 53.8778 13.2499L53.8771 13.2506ZM52.4933 13.2904C52.4933 12.5719 52.3433 12.0019 52.0208 11.5804C51.6983 11.1589 51.2693 10.9481 50.7106 10.9481C50.4686 10.9397 50.2286 10.9934 50.0132 11.1041C49.7979 11.2148 49.6146 11.3787 49.4806 11.5804C49.1843 12.0026 49.0351 12.5584 49.0351 13.2506C49.0351 14.0231 49.1948 14.6096 49.5151 15.0131C49.6623 15.2074 49.8538 15.3637 50.0736 15.4689C50.2934 15.5742 50.5352 15.6255 50.7788 15.6184C51.0361 15.6184 51.2708 15.5561 51.4838 15.4324C51.6987 15.3064 51.8845 15.1364 52.0291 14.9336C52.1871 14.7098 52.3042 14.4596 52.3748 14.1949C52.4543 13.9114 52.4948 13.6099 52.4948 13.2904H52.4933ZM58.2946 11.2414C58.1465 11.1627 57.9904 11.1004 57.8288 11.0554C57.6691 11.0104 57.4741 10.9804 57.2438 10.9804C56.8088 10.9804 56.4713 11.1304 56.2328 11.4326C55.9943 11.7349 55.8728 12.1826 55.8728 12.7766V16.7681H54.5026V9.78264H55.8728V10.4479C56.0445 10.2065 56.27 10.0083 56.5313 9.86889C56.8188 9.71169 57.142 9.63159 57.4696 9.63639C57.7531 9.63639 57.9946 9.66114 58.1671 9.70989C58.3401 9.75519 58.5042 9.8295 58.6523 9.92964L58.2923 11.2346L58.2946 11.2414Z" fill="#EF6639"/>
<path d="M60.5915 8.83267V11.2679H63.266V12.6382H60.5915V16.7759H59.1942V7.46167H65.1942V8.83192L60.5915 8.83267ZM65.4215 16.7752V7.79467L66.7917 7.07617V16.7767L65.4215 16.7752ZM73.7915 13.2502C73.7915 13.8277 73.7112 14.3437 73.5515 14.8004C73.3917 15.2572 73.169 15.6434 72.8862 15.9577C72.6099 16.2672 72.2692 16.5124 71.888 16.6762C71.5055 16.8412 71.09 16.9222 70.637 16.9222C70.1945 16.9222 69.7857 16.8359 69.413 16.6627C69.0402 16.4894 68.717 16.2427 68.4417 15.9239C68.1665 15.6052 67.952 15.2234 67.7967 14.7794C67.6415 14.3354 67.5717 13.8389 67.5717 13.2892C67.5717 12.7214 67.6512 12.2114 67.8117 11.7592C67.9722 11.3069 68.1912 10.9229 68.4702 10.6079C68.7492 10.2929 69.0702 10.0529 69.455 9.88942C69.8397 9.72592 70.2425 9.64342 70.685 9.64342C71.1275 9.64342 71.54 9.72967 71.9225 9.90292C72.2999 10.0729 72.6376 10.32 72.914 10.6282C73.1937 10.9387 73.4105 11.3182 73.5665 11.7659C73.7225 12.2137 73.7915 12.7094 73.7915 13.2502ZM72.4077 13.2899C72.4077 12.5714 72.2577 12.0014 71.9352 11.5799C71.6127 11.1584 71.1837 10.9477 70.625 10.9477C70.1015 10.9477 69.6912 11.1577 69.395 11.5799C69.0987 12.0022 68.9495 12.5579 68.9495 13.2502C68.9495 14.0227 69.1092 14.6092 69.4295 15.0127C69.5767 15.2069 69.7682 15.3632 69.988 15.4685C70.2078 15.5737 70.4496 15.625 70.6932 15.6179C70.9407 15.6206 71.1843 15.5563 71.3982 15.4319C71.613 15.3059 71.7988 15.1359 71.9435 14.9332C72.0935 14.7247 72.2097 14.4787 72.2885 14.1944C72.3672 13.9102 72.4077 13.6094 72.4077 13.2899ZM80.5505 16.7759H79.3805L78.4355 13.2509L78.2292 12.4334L78.0762 11.7614L77.9232 12.4402L77.717 13.2652L76.7855 16.7782H75.6155L73.6992 9.79267H75.0492L75.8742 13.1857L76.0737 14.0242L76.22 14.7164L76.3925 14.0242L76.6055 13.1857L77.537 9.79267H78.6417L79.5867 13.1992L79.793 14.0317L79.9595 14.7172L80.1125 14.0197L80.3052 13.1872L81.1302 9.79417H82.4802L80.5505 16.7759Z" fill="#A6A7A9"/>
</g>
<defs>
<clipPath id="clip0_1820_169632">
<rect width="82.5" height="24" fill="white" transform="translate(0.483276)"/>
</clipPath>
</defs>
</svg>
