<svg width="73" height="24" viewBox="0 0 73 24" fill="none" xmlns="http://www.w3.org/2000/svg">
<g clip-path="url(#clip0_1820_169726)">
<path d="M22.6258 3.90479H9.91187V20.1459H22.6258V3.90479Z" fill="white"/>
<path d="M9.42747 3.41699C8.92777 3.41699 8.52515 3.82217 8.52515 4.32649V19.6687C8.52515 20.172 8.92777 20.5782 9.42747 20.5782H22.3085C22.8082 20.5782 23.2108 20.172 23.2108 19.6687V4.32649C23.2108 3.82217 22.8082 3.41699 22.3085 3.41699H9.42747ZM9.24663 4.17057H22.4817V19.8159H9.24663V4.17057Z" fill="#1F7144"/>
<path d="M20.8937 5.67871H17.3298V7.62445H20.8937V5.67871Z" fill="#1F7144"/>
<path d="M16.5734 5.67871H13.0095V7.62445H16.5734V5.67871Z" fill="#1F7144"/>
<path d="M20.8937 8.33447H17.3298V10.2802H20.8937V8.33447Z" fill="#1F7144"/>
<path d="M16.5734 8.32715H13.0095V10.2729H16.5734V8.32715Z" fill="#1F7144"/>
<path d="M20.8937 11.0298H17.3298V12.9755H20.8937V11.0298Z" fill="#1F7144"/>
<path d="M16.5734 11.0298H13.0095V12.9755H16.5734V11.0298Z" fill="#1F7144"/>
<path d="M20.8937 13.7529H17.3298V15.6987H20.8937V13.7529Z" fill="#1F7144"/>
<path d="M16.5734 13.7368H13.0095V15.6826H16.5734V13.7368Z" fill="#1F7144"/>
<path d="M20.8937 16.4321H17.3298V18.3779H20.8937V16.4321Z" fill="#1F7144"/>
<path d="M16.5734 16.4321H13.0095V18.3779H16.5734V16.4321Z" fill="#1F7144"/>
<path d="M13.5755 22.6668V1.3335L0.861084 3.46625V20.5331L13.5755 22.6668Z" fill="url(#paint0_linear_1820_169726)"/>
<path d="M5.83556 8.43569L6.71599 10.7494C6.77948 10.886 6.80805 11.0327 6.82265 11.1315C6.81588 11.0164 6.83983 10.9266 6.90445 10.7494L7.94765 8.30865L9.55051 8.2124C8.90146 9.46234 8.27726 10.7253 7.67828 12.0005L9.63047 15.8974L7.90291 15.7935L6.85306 13.2508C6.77094 13.059 6.78679 13.0328 6.77025 12.9389C6.76261 13.0058 6.75996 13.0606 6.71599 13.1815L5.65947 15.6588L4.17749 15.5693L5.89077 12.0525L4.34882 8.52519L5.83556 8.43569Z" fill="white"/>
</g>
<path d="M37.6478 17.112V18.3999H31.3232V17.112H37.6478ZM31.6431 6.45615V18.3999H30.0599V6.45615H31.6431ZM36.8111 11.5913V12.8792H31.3232V11.5913H36.8111ZM37.5658 6.45615V7.75225H31.3232V6.45615H37.5658ZM40.4041 9.52412L42.3482 12.7562L44.3169 9.52412H46.097L43.1931 13.9046L46.1873 18.3999H44.4318L42.381 15.0694L40.3302 18.3999H38.5666L41.5525 13.9046L38.6568 9.52412H40.4041ZM51.1009 17.3171C51.4619 17.3171 51.7955 17.2433 52.1017 17.0956C52.408 16.9479 52.6595 16.7456 52.8564 16.4886C53.0533 16.2261 53.1654 15.928 53.1927 15.5944H54.6365C54.6091 16.1194 54.4314 16.6089 54.1033 17.0628C53.7806 17.5112 53.3568 17.8749 52.8318 18.1538C52.3068 18.4272 51.7298 18.564 51.1009 18.564C50.4337 18.564 49.8513 18.4464 49.3537 18.2112C48.8615 17.9761 48.4513 17.6534 48.1232 17.2433C47.8005 16.8331 47.5572 16.3628 47.3931 15.8323C47.2345 15.2964 47.1552 14.7304 47.1552 14.1343V13.7897C47.1552 13.1937 47.2345 12.6304 47.3931 12.0999C47.5572 11.564 47.8005 11.0909 48.1232 10.6808C48.4513 10.2706 48.8615 9.94795 49.3537 9.71279C49.8513 9.47764 50.4337 9.36006 51.1009 9.36006C51.7955 9.36006 52.4025 9.50225 52.922 9.78662C53.4416 10.0655 53.849 10.4483 54.1443 10.9351C54.4451 11.4163 54.6091 11.9632 54.6365 12.5757H53.1927C53.1654 12.2093 53.0615 11.8784 52.881 11.5831C52.706 11.2878 52.4654 11.0526 52.1591 10.8776C51.8583 10.6972 51.5056 10.6069 51.1009 10.6069C50.6361 10.6069 50.2451 10.6999 49.9279 10.8858C49.6162 11.0663 49.3673 11.3124 49.1814 11.6241C49.0009 11.9304 48.8697 12.2722 48.7876 12.6495C48.7111 13.0214 48.6728 13.4015 48.6728 13.7897V14.1343C48.6728 14.5226 48.7111 14.9054 48.7876 15.2827C48.8642 15.6601 48.9927 16.0019 49.1732 16.3081C49.3591 16.6144 49.608 16.8604 49.9197 17.0464C50.2369 17.2269 50.6306 17.3171 51.1009 17.3171ZM60.0259 18.564C59.408 18.564 58.8474 18.4601 58.3443 18.2522C57.8466 18.039 57.4173 17.7409 57.0564 17.3581C56.7009 16.9753 56.4275 16.5214 56.2361 15.9964C56.0447 15.4714 55.949 14.8972 55.949 14.2737V13.9292C55.949 13.2073 56.0556 12.5647 56.2689 12.0015C56.4822 11.4327 56.772 10.9515 57.1384 10.5577C57.5048 10.164 57.9205 9.86592 58.3853 9.66357C58.8501 9.46123 59.3314 9.36006 59.8291 9.36006C60.4634 9.36006 61.0103 9.46943 61.4697 9.68818C61.9345 9.90693 62.3146 10.2132 62.6099 10.6069C62.9052 10.9952 63.124 11.4546 63.2662 11.9851C63.4084 12.5101 63.4794 13.0843 63.4794 13.7077V14.3886H56.8513V13.1499H61.9619V13.0351C61.94 12.6413 61.858 12.2585 61.7158 11.8866C61.5791 11.5147 61.3603 11.2085 61.0595 10.9679C60.7587 10.7272 60.3486 10.6069 59.8291 10.6069C59.4845 10.6069 59.1673 10.6808 58.8775 10.8284C58.5876 10.9706 58.3388 11.1839 58.131 11.4683C57.9232 11.7526 57.7619 12.0999 57.647 12.5101C57.5322 12.9202 57.4748 13.3933 57.4748 13.9292V14.2737C57.4748 14.6948 57.5322 15.0913 57.647 15.4632C57.7673 15.8296 57.9396 16.1522 58.1638 16.4312C58.3935 16.7101 58.6697 16.9288 58.9923 17.0874C59.3205 17.246 59.6923 17.3253 60.108 17.3253C60.6439 17.3253 61.0978 17.2159 61.4697 16.9972C61.8416 16.7784 62.1669 16.4858 62.4459 16.1194L63.3646 16.8495C63.1732 17.1394 62.9298 17.4155 62.6345 17.678C62.3392 17.9405 61.9755 18.1538 61.5435 18.3179C61.1169 18.4819 60.6111 18.564 60.0259 18.564ZM66.9001 5.7999V18.3999H65.3744V5.7999H66.9001Z" fill="#1E6E42"/>
<defs>
<linearGradient id="paint0_linear_1820_169726" x1="13.5753" y1="12.0003" x2="0.861439" y2="12.0003" gradientUnits="userSpaceOnUse">
<stop stop-color="#1D6B40"/>
<stop offset="1" stop-color="#217748"/>
</linearGradient>
<clipPath id="clip0_1820_169726">
<rect width="22.3492" height="21.3333" fill="white" transform="translate(0.857178 1.33325)"/>
</clipPath>
</defs>
</svg>
