<svg width="87" height="24" viewBox="0 0 87 24" fill="none" xmlns="http://www.w3.org/2000/svg">
<path d="M9.62618 4.64848V5.40035H8.13184V5.88938H9.62618V7.38702H10.2103V5.88938H11.742V5.40035H10.2103V3.89966H9.62618V4.64848Z" fill="#7099A6"/>
<path d="M4.74529 6.55403V7.64516H2.4834V8.3298H4.74529V10.5457H5.58416V8.3298H7.88001V7.64516H5.58416V5.46289H4.74529V6.55403Z" fill="#EB912C"/>
<path d="M14.2256 6.55403V7.64516H11.9637V8.36342H14.2256V10.5457H15.0985V8.36342H17.3604V7.64516H15.0985V5.46289H14.2256V6.55403Z" fill="#59879B"/>
<path d="M9.41016 10.2738V11.4964H6.89355V12.4072H9.41016V14.8523H10.429V12.4072H12.9456V11.4964H10.429V9.05127H9.41016V10.2738Z" fill="#E8762C"/>
<path d="M16.812 10.8911V11.6582H15.2803V12.2787H16.812V13.8099H17.5761V12.2787H19.1078V11.6582H17.5761V10.127H16.812V10.8911Z" fill="#5B6591"/>
<path d="M2.22786 10.9567V11.6902H0.733521V12.2098H2.22786V13.6769H2.81201V12.2098L4.34371 12.1609V11.6902H2.81201V10.2231H2.22786V10.9567Z" fill="#7099A6"/>
<path d="M4.74529 14.4105V15.5016H2.4834V16.2199H4.74529V18.4021H5.61812V16.2199H7.88001V15.5016H5.61812V13.3193H4.74529V14.4105Z" fill="#C72035"/>
<path d="M14.2256 14.4105V15.5016H11.9637V16.1862H14.2256V18.4021H15.0985V16.1862H17.3604V15.5016H15.0985V13.3193H14.2256V14.4105Z" fill="#1F447E"/>
<path d="M9.55795 17.1846V17.9487H8.02625V18.5692H9.55795V20.1004H10.3221V18.5692H11.8538V17.9487H10.3221V16.4175H9.55795V17.1846Z" fill="#5B6591"/>
<path d="M56.6588 7.15747V16.4489H55.4939V7.15747H56.6588ZM27.7127 8.46256V11.4273H30.8474V12.4053H27.7127V15.5993H26.5478V12.4053H23.4131V11.4273H26.5478V8.46256H27.7127ZM64.1713 10.4981C64.3818 10.5073 64.6501 10.5379 64.7724 10.5654C64.8913 10.5929 65.0882 10.6571 65.2071 10.709C65.3294 10.7579 65.5264 10.8649 65.6452 10.9474C65.7675 11.0299 65.9373 11.1828 66.0256 11.2867C66.1139 11.3906 66.2396 11.5801 66.3075 11.7054C66.3754 11.8307 66.4637 12.0508 66.5045 12.1944C66.5452 12.3381 66.5928 12.6284 66.6301 13.2214H62.6022L62.626 13.3436C62.6362 13.4109 62.6803 13.5545 62.7143 13.6615C62.7516 13.7685 62.8467 13.9366 62.9214 14.0313C62.9962 14.1261 63.1082 14.2392 63.166 14.2789C63.2271 14.3186 63.3494 14.3859 63.4411 14.4287C63.5294 14.4684 63.6856 14.5204 63.7875 14.5448C63.8894 14.5693 64.1611 14.5907 64.4056 14.5907C64.6467 14.5907 64.9931 14.5693 65.1731 14.5417C65.3531 14.5142 65.6079 14.4592 65.7369 14.4225C65.866 14.3859 66.0358 14.3278 66.1105 14.2942C66.1852 14.2606 66.2633 14.23 66.2837 14.23C66.3065 14.23 66.3199 14.4009 66.321 15.1102L66.3211 15.208L66.1207 15.2906C66.0086 15.3364 65.7777 15.4098 65.6011 15.4556C65.4245 15.4984 65.1018 15.5534 64.8811 15.5748C64.5788 15.6023 64.375 15.6023 64.0592 15.5748C63.8282 15.5534 63.492 15.4984 63.312 15.4526C63.132 15.4067 62.8705 15.315 62.7346 15.2478C62.5954 15.1805 62.3611 15.0247 62.2116 14.8993C62.0588 14.774 61.8686 14.5693 61.7803 14.4439C61.692 14.3186 61.5833 14.1047 61.5324 13.9702C61.4814 13.8357 61.4203 13.6004 61.3965 13.4506C61.3694 13.2825 61.3626 13.0472 61.3762 12.8638C61.3863 12.6926 61.4305 12.4359 61.4713 12.2922C61.512 12.1486 61.6105 11.9132 61.6886 11.7696C61.7667 11.6259 61.9128 11.4212 62.0079 11.3142C62.1063 11.2072 62.2999 11.0422 62.4392 10.9474C62.5784 10.8527 62.8128 10.7335 62.9588 10.6785C63.1014 10.6234 63.3494 10.5593 63.5056 10.5317C63.6924 10.5012 63.9165 10.489 64.1713 10.4981ZM76.272 10.4492V12.0875C76.272 12.9891 76.2618 14.068 76.2177 15.2447L75.9256 15.3242C75.766 15.367 75.4433 15.4342 75.2056 15.4678C74.9033 15.5167 74.6147 15.5351 74.2241 15.5351C73.915 15.5351 73.5584 15.5198 73.4294 15.5015C73.3003 15.4801 73.0456 15.422 72.8656 15.37C72.672 15.315 72.4207 15.208 72.2645 15.1164C72.1116 15.0277 71.9011 14.8718 71.7924 14.7649C71.6871 14.6609 71.5377 14.4776 71.4664 14.3614C71.395 14.2453 71.2965 14.0313 71.249 13.8907C71.1777 13.686 71.1573 13.527 71.1403 13.1572C71.1301 12.8607 71.1403 12.5979 71.1675 12.4542C71.1913 12.3289 71.2524 12.118 71.3033 11.9835C71.3509 11.8491 71.463 11.6351 71.5513 11.5098C71.6362 11.3845 71.8196 11.1858 71.9588 11.0697C72.115 10.9413 72.3188 10.8099 72.4852 10.7365C72.6347 10.6723 72.852 10.5929 72.9743 10.5623C73.0932 10.5348 73.3886 10.5012 73.6298 10.492C73.9524 10.4798 74.1392 10.492 74.3396 10.5287C74.4924 10.5593 74.72 10.6265 74.8524 10.6815C74.9815 10.7335 75.0935 10.7793 75.0969 10.7763C75.1032 10.7763 75.1065 10.7146 75.107 10.6361L75.1071 10.4492H76.272ZM40.2176 10.4492L40.2176 12.4873L40.2172 12.7C40.2146 13.6567 40.2 14.5955 40.1633 15.2447L39.8712 15.3242C39.7116 15.367 39.3754 15.4342 39.1241 15.474C38.7403 15.532 38.5671 15.5381 38.0135 15.5259C37.5007 15.5137 37.2935 15.4953 37.0659 15.4434C36.9029 15.4037 36.6244 15.3089 36.4444 15.2294C36.2542 15.1439 36.0267 15.0094 35.8976 14.9085C35.7788 14.8107 35.609 14.6365 35.5274 14.5234C35.4425 14.4073 35.3305 14.2239 35.2829 14.1169C35.2354 14.0099 35.164 13.796 35.1301 13.6462C35.0825 13.4262 35.0723 13.2642 35.0859 12.8791C35.1029 12.5092 35.1267 12.3289 35.1844 12.1455C35.2286 12.011 35.3305 11.791 35.4086 11.6565C35.4867 11.522 35.6429 11.3172 35.7584 11.2042C35.8773 11.088 36.0708 10.9352 36.1897 10.8618C36.3086 10.7915 36.5056 10.6968 36.6278 10.654C36.7467 10.6112 36.964 10.5531 37.1101 10.5287C37.2561 10.5042 37.5278 10.4828 37.7112 10.4828C37.898 10.4828 38.1629 10.5073 38.3056 10.5317C38.4448 10.5593 38.6656 10.6265 38.798 10.6815C38.9271 10.7335 39.0391 10.7793 39.0425 10.7763C39.0459 10.7763 39.0527 10.7029 39.0527 10.6143V10.4492H40.2176ZM47.0339 8.13552L47.034 9.68868C47.0352 10.6466 47.0452 10.7078 47.0984 10.6937C47.1358 10.6815 47.3124 10.6387 47.4924 10.5929C47.7063 10.5409 47.9644 10.5073 48.2395 10.492C48.552 10.4798 48.7354 10.489 48.9663 10.5287C49.1633 10.5623 49.3976 10.6357 49.6048 10.7274C49.7848 10.8068 50.0226 10.9413 50.1346 11.0299C50.2433 11.1155 50.4165 11.2958 50.515 11.4303C50.6169 11.5648 50.7426 11.7788 50.7969 11.9102C50.8546 12.0386 50.926 12.28 50.9599 12.4481C51.0007 12.6682 51.0109 12.8577 50.9973 13.1572C50.9871 13.3803 50.9497 13.6584 50.9158 13.7746C50.8852 13.8907 50.8037 14.0894 50.7392 14.2147C50.6746 14.34 50.5456 14.5326 50.4539 14.6396C50.3656 14.7465 50.1856 14.9055 50.0565 14.9941C49.9309 15.0827 49.6999 15.205 49.5505 15.2661C49.401 15.3303 49.1531 15.4098 49.0037 15.4464C48.7693 15.5045 48.6199 15.5137 47.9475 15.5167C47.3124 15.5198 47.1052 15.5076 46.8539 15.4587C46.6841 15.425 46.4022 15.3609 46.2324 15.3181C46.0626 15.2753 45.9131 15.2264 45.8995 15.2142C45.886 15.2019 45.869 13.6065 45.8622 11.6657L45.8486 8.13552H47.0339ZM81.9981 10.5806L81.9947 12.2189L81.9947 12.3477C81.9947 12.3686 81.9947 12.3892 81.9947 12.4095L81.9948 12.6404C81.9959 13.6575 82.003 13.8531 82.0475 14.0096L82.0524 14.0263C82.0566 14.0401 82.0611 14.0538 82.066 14.068C82.1101 14.1903 82.1917 14.3339 82.2596 14.4073C82.3241 14.4745 82.46 14.5662 82.5618 14.609C82.6603 14.6518 82.8505 14.7007 82.9796 14.716C83.1188 14.7343 83.3158 14.7343 83.4551 14.716C83.5841 14.7007 83.7743 14.6518 83.8728 14.609C83.9747 14.5662 84.1105 14.4745 84.1751 14.4073C84.243 14.3339 84.3279 14.1903 84.3686 14.068C84.3741 14.0521 84.3791 14.0368 84.3837 14.0205L84.3871 14.008C84.4294 13.8469 84.438 13.5558 84.4396 11.7449L84.4397 11.5987C84.4397 11.5738 84.4397 11.5487 84.4398 11.5232L84.4399 11.1208C84.4399 11.0926 84.4399 11.0641 84.4399 11.0352L84.44 10.5806H85.632L85.6252 12.3503C85.6222 13.8269 85.6193 14.0801 85.5721 14.2471L85.5677 14.2619C85.5655 14.2692 85.5631 14.2764 85.5607 14.2835L85.5558 14.2979L85.5505 14.3125C85.5098 14.4195 85.4249 14.5815 85.3603 14.6701C85.2958 14.7618 85.1837 14.8871 85.1056 14.9544C85.0309 15.0216 84.8679 15.1286 84.749 15.1928C84.6301 15.2569 84.3992 15.3456 84.2396 15.3914C84.0562 15.4434 83.8117 15.4831 83.5841 15.4984C83.3803 15.5076 83.0543 15.5076 82.8539 15.4953C82.6264 15.4831 82.3784 15.4434 82.1984 15.3914C82.0354 15.3456 81.8079 15.2569 81.6856 15.1928C81.5667 15.1286 81.4071 15.0216 81.329 14.9544C81.2543 14.8871 81.1388 14.7618 81.0743 14.6701C81.0132 14.5815 80.9283 14.4195 80.8875 14.3125L80.8847 14.3053L80.8794 14.291C80.8742 14.2768 80.8693 14.2626 80.8649 14.2476L80.8606 14.2324C80.8151 14.0639 80.8113 13.775 80.8026 12.3503L80.789 10.5806H81.9981ZM73.9388 11.4639C73.8098 11.4639 73.6128 11.4884 73.5041 11.5128C73.392 11.5404 73.2222 11.6015 73.1237 11.6504C73.0252 11.6993 72.8826 11.8002 72.8045 11.8766C72.7264 11.953 72.6245 12.0875 72.5735 12.1791C72.5226 12.2678 72.4581 12.4328 72.4275 12.5459C72.3969 12.6559 72.3731 12.873 72.3731 13.0258C72.3731 13.1786 72.3969 13.3956 72.4275 13.5056C72.4581 13.6187 72.5158 13.7715 72.5599 13.8479C72.6041 13.9244 72.7162 14.0588 72.8079 14.1444C72.8996 14.2331 73.049 14.337 73.1373 14.3767C73.229 14.4195 73.392 14.4776 73.5041 14.5051C73.6298 14.5387 73.8369 14.557 74.0781 14.557C74.2818 14.557 74.5705 14.5417 74.7132 14.5234C74.8592 14.5051 74.9984 14.4776 75.0188 14.4653C75.0494 14.4501 75.0664 14.0558 75.0766 13.1114L75.0867 11.7757C74.7199 11.6076 74.5162 11.5373 74.3939 11.5098C74.275 11.4823 74.0713 11.4609 73.9388 11.4639ZM37.4463 11.5128C37.3376 11.5404 37.1678 11.6015 37.0693 11.6504C36.9708 11.6993 36.8282 11.8002 36.7501 11.8766C36.672 11.953 36.5667 12.0875 36.5191 12.1791C36.4682 12.2678 36.4037 12.4328 36.3731 12.5459C36.3425 12.6559 36.3188 12.8577 36.3188 12.9921C36.3188 13.1266 36.3357 13.3253 36.3561 13.4323C36.3799 13.5392 36.441 13.7165 36.4988 13.8235C36.5667 13.9519 36.6754 14.0833 36.8146 14.1994C36.9505 14.3125 37.1101 14.4073 37.2493 14.4562C37.4191 14.5173 37.555 14.5356 37.9048 14.5509C38.1527 14.5601 38.4652 14.5479 38.6316 14.5265C38.7912 14.5051 38.9407 14.4776 38.9644 14.4653C38.9916 14.4501 39.012 14.0252 39.029 13.1144L39.0527 11.7879C38.7539 11.6412 38.5874 11.574 38.4856 11.5434C38.3871 11.5098 38.1561 11.4792 37.9761 11.4731C37.752 11.4639 37.5856 11.4762 37.4463 11.5128ZM48.1478 11.4639C48.0086 11.467 47.8252 11.4823 47.7471 11.4976C47.6656 11.5128 47.4788 11.5648 47.326 11.6137L47.0542 11.6993V14.4103C47.6248 14.5448 47.7471 14.554 48.1275 14.5448C48.501 14.5356 48.6233 14.5204 48.8033 14.4592C48.9222 14.4164 49.0886 14.337 49.1667 14.2789C49.2482 14.2239 49.3637 14.12 49.4248 14.0497C49.486 13.9794 49.5743 13.8327 49.6184 13.7257C49.666 13.6187 49.7203 13.4139 49.7407 13.2703C49.7712 13.0747 49.7712 12.9402 49.7373 12.7324C49.7101 12.5459 49.6524 12.3778 49.5675 12.2189C49.4995 12.0875 49.3807 11.9255 49.306 11.8582C49.2312 11.791 49.0954 11.6962 49.0037 11.6504C48.9154 11.6015 48.7422 11.5404 48.6199 11.5128C48.501 11.4823 48.2871 11.4609 48.1478 11.4639ZM63.7671 11.5098C63.6584 11.5373 63.4818 11.6076 63.3731 11.6657C63.2645 11.7237 63.1116 11.8368 63.0301 11.9163C62.952 11.9988 62.8467 12.1333 62.7992 12.2189C62.7516 12.3045 62.7109 12.387 62.7109 12.4053C62.7109 12.4257 63.1267 12.4378 63.8969 12.4389L65.3192 12.4389C65.2818 12.1975 65.2479 12.0783 65.2207 12.0141C65.1901 11.953 65.1018 11.8368 65.0237 11.7604C64.9286 11.6657 64.8131 11.5984 64.6807 11.5526C64.5686 11.519 64.3648 11.4823 64.2256 11.4731C64.0626 11.467 63.8962 11.4792 63.7671 11.5098Z" fill="#1F447E"/>
</svg>
