<svg width="77" height="24" viewBox="0 0 77 24" fill="none" xmlns="http://www.w3.org/2000/svg">
<path d="M30.7424 7.96318C30.8095 7.97073 30.875 7.98711 30.9368 8.01177C30.9972 8.03761 31.0531 8.07146 31.1024 8.11219C31.1661 8.16697 31.2258 8.2254 31.2811 8.28712L36.2614 13.9529C36.241 13.7725 36.2278 13.5954 36.2182 13.4259C36.2086 13.2564 36.2038 13.0944 36.2038 12.9432V7.94482H38.3478V17.3801H37.0809C36.9186 17.3843 36.7571 17.3578 36.6069 17.3024C36.4582 17.2363 36.3297 17.1384 36.2326 17.0173L31.2883 11.4024C31.3039 11.5654 31.3147 11.7263 31.3243 11.8839C31.3339 12.0416 31.3399 12.1895 31.3399 12.3277V17.3855H29.1947V7.94482H30.4749C30.5644 7.94572 30.6538 7.95185 30.7424 7.96318Z" fill="#4D77CF"/>
<path d="M41.8718 10.6641V14.925C41.8718 15.2575 41.9558 15.5145 42.1238 15.6959C42.2163 15.789 42.3312 15.8618 42.4596 15.9089C42.5881 15.9561 42.7268 15.9763 42.8652 15.9681C43.1028 15.9695 43.3377 15.923 43.5527 15.832C43.7801 15.7329 43.9899 15.6041 44.1754 15.4498V10.6641H46.4058V17.3794H45.0248C44.9044 17.3884 44.7841 17.3598 44.6843 17.2984C44.5844 17.2371 44.5111 17.1467 44.4765 17.0425L44.341 16.6537C44.2006 16.7761 44.0515 16.8901 43.8946 16.995C43.7405 17.0959 43.5752 17.1823 43.4015 17.253C43.2185 17.3272 43.0276 17.3844 42.8316 17.4236C42.6145 17.4661 42.3928 17.4868 42.1706 17.4852C41.7996 17.4913 41.4315 17.4261 41.0908 17.2941C40.7846 17.172 40.5128 16.9897 40.2953 16.7606C40.0741 16.5226 39.9077 16.2473 39.8058 15.9508C39.692 15.6193 39.6361 15.274 39.6402 14.9271V10.6641H41.8718Z" fill="#4D77CF"/>
<path d="M47.847 17.381V10.6635H49.2292C49.3523 10.6595 49.4739 10.6889 49.5783 10.7477C49.6751 10.8086 49.7451 10.898 49.7763 11.0004L49.8963 11.3632C50.0173 11.2476 50.1468 11.1394 50.2838 11.0393C50.4189 10.9417 50.5648 10.857 50.7193 10.7866C51.0593 10.6313 51.4359 10.5524 51.8171 10.5566C52.2193 10.5425 52.6146 10.6535 52.9365 10.8708C53.2398 11.091 53.4718 11.3804 53.6084 11.7088C53.7267 11.51 53.8813 11.3304 54.0655 11.1775C54.2398 11.0344 54.4362 10.9148 54.6486 10.8222C54.859 10.7311 55.081 10.6637 55.3097 10.6214C55.5386 10.5786 55.7717 10.5568 56.0056 10.5566C56.3928 10.5506 56.7779 10.6088 57.1417 10.7283C57.4583 10.834 57.743 11.0048 57.9732 11.2272C58.2043 11.4592 58.3774 11.7331 58.4807 12.0305C58.6015 12.38 58.6598 12.7445 58.6535 13.1104V17.3777H56.4219V13.1136C56.4219 12.4182 56.0911 12.0709 55.4297 12.0716C55.2905 12.0676 55.1519 12.0894 55.0225 12.1356C54.893 12.1819 54.7756 12.2516 54.6774 12.3405C54.4782 12.5183 54.3786 12.776 54.3786 13.1136V17.381H52.1507V13.1136C52.1507 12.7292 52.0667 12.4592 51.8987 12.3037C51.7307 12.1482 51.4836 12.0716 51.1572 12.0716C50.9585 12.0712 50.7624 12.113 50.5849 12.1936C50.3986 12.2806 50.2276 12.3919 50.0774 12.524V17.3831L47.847 17.381Z" fill="#4D77CF"/>
<path d="M62.3806 14.2276V17.3818H59.9486V7.94643H63.6463C64.2908 7.93353 64.9334 8.01261 65.5504 8.18074C66.0316 8.31337 66.4772 8.53393 66.8593 8.82863C67.1958 9.09536 67.4562 9.43085 67.6188 9.80693C67.783 10.1954 67.8645 10.6083 67.8588 11.0239C67.8646 11.4661 67.7791 11.9055 67.6068 12.3196C67.4432 12.707 67.1791 13.0535 66.8366 13.3303C66.4552 13.6298 66.0079 13.8535 65.524 13.9868C64.9163 14.1564 64.2825 14.2377 63.6463 14.2276H62.3806ZM62.3806 12.5766H63.6463C64.2798 12.5766 64.7357 12.4416 65.0141 12.1685C65.2924 11.8953 65.4316 11.5206 65.4316 11.0293C65.4345 10.8286 65.3979 10.629 65.3236 10.4397C65.2547 10.2669 65.1427 10.1106 64.9961 9.98294C64.8374 9.84947 64.6482 9.74885 64.4418 9.68815C64.1849 9.61351 63.9162 9.57704 63.6463 9.58017H62.3806V12.5766Z" fill="#4D77CF"/>
<path d="M72.1794 19.1251C72.1287 19.2398 72.0461 19.3409 71.9395 19.4188C71.8001 19.4914 71.6394 19.5242 71.4788 19.5127H69.8051L71.2448 16.7938L68.267 10.6648H70.2382C70.3824 10.6582 70.5247 10.6963 70.6413 10.7728C70.7328 10.8363 70.8026 10.9216 70.8429 11.019L72.0655 13.9139C72.1785 14.1748 72.2723 14.4421 72.3462 14.7141C72.3942 14.5759 72.447 14.4398 72.5046 14.307C72.5622 14.1742 72.6174 14.037 72.6702 13.8988L73.7788 11.0168C73.8206 10.9129 73.9006 10.8249 74.0055 10.7674C74.1118 10.7026 74.2371 10.6676 74.3655 10.667H76.1651L72.1794 19.1251Z" fill="#4D77CF"/>
<path d="M10.7234 4.87511L6.2686 2.85156L1.3783 5.04788L5.95426 7.11571L10.7234 4.87511Z" fill="#4DABCF"/>
<path d="M12.7675 5.80322L17.4382 7.92612L12.5923 10.116L8.00916 8.0449L12.7675 5.80322Z" fill="#4DABCF"/>
<path d="M19.0055 2.88184L23.8046 5.04792L19.5118 6.98725L14.8314 4.8622L19.0055 2.88184Z" fill="#4DABCF"/>
<path d="M16.9411 1.95013L12.6207 0L8.34705 1.91989L12.7994 3.9402L16.9411 1.95013Z" fill="#4DABCF"/>
<path d="M13.5619 18.6937V23.9999L18.7953 21.6491L18.7905 16.3408L13.5619 18.6937Z" fill="#4DABCF"/>
<path d="M18.7901 14.488L18.7841 9.23584L13.5638 11.5715V16.8258L18.7901 14.488Z" fill="#4DABCF"/>
<path d="M25.0728 13.5046V18.8313L20.6085 20.8354L20.6049 15.5336L25.0728 13.5046Z" fill="#4DABCF"/>
<path d="M25.0737 11.6412V6.42139L20.601 8.42226L20.6046 13.6852L25.0737 11.6412Z" fill="#4DABCF"/>
<path d="M11.7152 11.5701L8.1902 9.97417V16.8676C8.1902 16.8676 3.87819 8.61146 3.47987 7.86963C3.42828 7.77353 3.21712 7.66879 3.16313 7.64287C2.38567 7.2779 0.120483 6.24561 0.120483 6.24561V18.429L3.25431 19.9408V13.5699C3.25431 13.5699 7.51953 20.9471 7.56392 21.0281C7.60831 21.1091 8.03423 21.8855 8.49255 22.1587C9.10084 22.5226 11.7128 23.936 11.7128 23.936L11.7152 11.5701Z" fill="#4D77CF"/>
</svg>
