<svg width="56" height="56" viewBox="0 0 56 56" fill="none" xmlns="http://www.w3.org/2000/svg">
<rect width="56" height="56" rx="16" fill="#F8F4FF"/>
<path d="M30.6666 20.6667V18H25.3333V20.6667H30.6666ZM17.3333 23.3334V38H38.6666V23.3334H17.3333ZM38.6666 20.6667C40.1466 20.6667 41.3333 21.8534 41.3333 23.3334V38C41.3333 39.48 40.1466 40.6667 38.6666 40.6667H17.3333C15.8533 40.6667 14.6666 39.48 14.6666 38L14.68 23.3334C14.68 21.8534 15.8533 20.6667 17.3333 20.6667H22.6666V18C22.6666 16.52 23.8533 15.3334 25.3333 15.3334H30.6666C32.1466 15.3334 33.3333 16.52 33.3333 18V20.6667H38.6666Z" fill="#713CDD"/>
</svg>
