<svg width="56" height="56" viewBox="0 0 56 56" fill="none" xmlns="http://www.w3.org/2000/svg">
<rect width="56" height="56" rx="16" fill="#E6F0FF"/>
<path d="M22 17.3333C19.4267 17.3333 17.3334 19.4267 17.3334 22C17.3334 24.5733 19.4267 26.6667 22 26.6667C24.5734 26.6667 26.6667 24.5733 26.6667 22C26.6667 19.4267 24.5734 17.3333 22 17.3333ZM22 24C20.8934 24 20 23.1067 20 22C20 20.8933 20.8934 20 22 20C23.1067 20 24 20.8933 24 22C24 23.1067 23.1067 24 22 24ZM34 29.3333C31.4267 29.3333 29.3334 31.4267 29.3334 34C29.3334 36.5733 31.4267 38.6667 34 38.6667C36.5734 38.6667 38.6667 36.5733 38.6667 34C38.6667 31.4267 36.5734 29.3333 34 29.3333ZM34 36C32.8934 36 32 35.1067 32 34C32 32.8933 32.8934 32 34 32C35.1067 32 36 32.8933 36 34C36 35.1067 35.1067 36 34 36ZM19.2134 38.6667L17.3334 36.7867L36.7867 17.3333L38.6667 19.2133L19.2134 38.6667Z" fill="#0066FF"/>
</svg>
