<svg width="137" height="24" viewBox="0 0 137 24" fill="none" xmlns="http://www.w3.org/2000/svg">
<path d="M11.0734 3.66503C11.6362 2.59831 13.1639 2.59831 13.7268 3.66503L15.9478 7.87472L20.6378 8.68621C21.8262 8.89184 22.2983 10.3448 21.4577 11.2097L18.1404 14.6229L18.818 19.3341C18.9896 20.5279 17.7537 21.4259 16.6714 20.8937L12.4001 18.7935L8.12881 20.8937C7.04649 21.4259 5.81053 20.5279 5.98221 19.3341L6.65973 14.6229L3.34242 11.2097C2.50183 10.3448 2.97392 8.89184 4.16235 8.68621L8.85235 7.87472L11.0734 3.66503Z" fill="#EF9D1A"/>
<path d="M39.0734 3.66503C39.6362 2.59831 41.1639 2.59831 41.7268 3.66503L43.9478 7.87472L48.6378 8.68621C49.8262 8.89184 50.2983 10.3448 49.4577 11.2097L46.1404 14.6229L46.818 19.3341C46.9896 20.5279 45.7537 21.4259 44.6714 20.8937L40.4001 18.7935L36.1288 20.8937C35.0465 21.4259 33.8105 20.5279 33.9822 19.3341L34.6597 14.6229L31.3424 11.2097C30.5018 10.3448 30.9739 8.89184 32.1624 8.68621L36.8524 7.87472L39.0734 3.66503Z" fill="#EF9D1A"/>
<path d="M67.0734 3.66503C67.6362 2.59831 69.1639 2.59831 69.7268 3.66503L71.9478 7.87472L76.6378 8.68621C77.8262 8.89184 78.2983 10.3448 77.4577 11.2097L74.1404 14.6229L74.818 19.3341C74.9896 20.5279 73.7537 21.4259 72.6714 20.8937L68.4001 18.7935L64.1288 20.8937C63.0465 21.4259 61.8105 20.5279 61.9822 19.3341L62.6597 14.6229L59.3424 11.2097C58.5018 10.3448 58.9739 8.89184 60.1624 8.68621L64.8524 7.87472L67.0734 3.66503Z" fill="#EF9D1A"/>
<path d="M95.0734 3.66503C95.6362 2.59831 97.1639 2.59831 97.7268 3.66503L99.9478 7.87472L104.638 8.68621C105.826 8.89184 106.298 10.3448 105.458 11.2097L102.14 14.6229L102.818 19.3341C102.99 20.5279 101.754 21.4259 100.671 20.8937L96.4001 18.7935L92.1288 20.8937C91.0465 21.4259 89.8105 20.5279 89.9822 19.3341L90.6597 14.6229L87.3424 11.2097C86.5018 10.3448 86.9739 8.89184 88.1624 8.68621L92.8524 7.87472L95.0734 3.66503Z" fill="#EF9D1A"/>
<path fill-rule="evenodd" clip-rule="evenodd" d="M125.727 3.70702C125.164 2.6403 123.636 2.64031 123.073 3.70702L120.852 7.91671L116.162 8.7282C114.974 8.93383 114.502 10.3868 115.342 11.2517L118.66 14.6649L117.982 19.3761C117.811 20.5699 119.046 21.4679 120.129 20.9357L124.4 18.8355L128.671 20.9357C129.754 21.4679 130.99 20.5699 130.818 19.3761L130.14 14.6649L133.458 11.2517C134.298 10.3868 133.826 8.93383 132.638 8.7282L127.948 7.91671L125.727 3.70702ZM124.599 4.78327L126.621 8.61667C126.838 9.02804 127.234 9.31545 127.692 9.39475L132.382 10.2062L129.065 13.6195C128.741 13.953 128.59 14.418 128.656 14.8784L129.333 19.5896L125.062 17.4894C124.912 17.4156 124.752 17.3683 124.59 17.3476C124.59 17.3476 124.597 8.91095 124.599 4.78327Z" fill="#EF9D1A"/>
</svg>
