<svg id="OBJECT" height="512" viewBox="0 0 512 512" width="512" xmlns="http://www.w3.org/2000/svg" xmlns:xlink="http://www.w3.org/1999/xlink"><linearGradient id="New_Gradient_Swatch" gradientUnits="userSpaceOnUse" x2="488.49" y1="256" y2="256"><stop offset="0" stop-color="#7738c8"/><stop offset="1" stop-color="#461d93"/></linearGradient><linearGradient id="New_Gradient_Swatch-2" x1=".39" x2="488.88" xlink:href="#New_Gradient_Swatch" y1="247.5" y2="247.5"/><linearGradient id="New_Gradient_Swatch-4" x1=".39" x2="488.88" xlink:href="#New_Gradient_Swatch" y1="377.5" y2="377.5"/><linearGradient id="New_Gradient_Swatch-7" x1=".39" x2="488.88" xlink:href="#New_Gradient_Swatch" y1="84.93" y2="84.93"/><linearGradient id="New_Gradient_Swatch-8" x1=".39" x2="488.88" xlink:href="#New_Gradient_Swatch" y1="74.93" y2="74.93"/><path d="m484.5 50h-96v-22.5a27.54 27.54 0 0 0 -27.5-27.5h-210a27.54 27.54 0 0 0 -27.5 27.5v22.5h-96a27.54 27.54 0 0 0 -27.5 27.5v310a27.54 27.54 0 0 0 27.5 27.5h171v52h-102.5a22.5 22.5 0 0 0 0 45h320a22.5 22.5 0 0 0 0-45h-102.5v-52h171a27.54 27.54 0 0 0 27.5-27.5v-310a27.54 27.54 0 0 0 -27.5-27.5zm-96 97.5v-82.5h96a12.52 12.52 0 0 1 12.5 12.5v262.5h-233.5v-165h97.5a27.54 27.54 0 0 0 27.5-27.5zm-250-120a12.52 12.52 0 0 1 12.5-12.5h210a12.52 12.52 0 0 1 12.5 12.5v120a12.52 12.52 0 0 1 -12.5 12.5h-210a12.52 12.52 0 0 1 -12.5-12.5zm-111 37.5h96v82.5a27.54 27.54 0 0 0 27.5 27.5h97.5v165h-233.5v-262.5a12.52 12.52 0 0 1 12.5-12.5zm396 424.5a7.5 7.5 0 0 1 -7.5 7.5h-320a7.5 7.5 0 0 1 0-15h320a7.5 7.5 0 0 1 7.5 7.5zm-125-22.5h-35v-26a7.5 7.5 0 0 0 -15 0v26h-35v-52h85zm186-67h-457a12.52 12.52 0 0 1 -12.5-12.5v-32.5h482v32.5a12.52 12.52 0 0 1 -12.5 12.5z" fill="url(#New_Gradient_Swatch)"/><path d="m77.5 315h40a27.54 27.54 0 0 0 27.5-27.5v-10a47.54 47.54 0 0 0 -24.84-41.74 32.5 32.5 0 1 0 -45.32 0 47.54 47.54 0 0 0 -24.84 41.74v10a27.54 27.54 0 0 0 27.5 27.5zm2.5-102.5a17.5 17.5 0 1 1 17.5 17.5 17.52 17.52 0 0 1 -17.5-17.5zm-15 65a32.5 32.5 0 0 1 65 0v10a12.52 12.52 0 0 1 -12.5 12.5h-40a12.52 12.52 0 0 1 -12.5-12.5z" fill="url(#New_Gradient_Swatch-2)"/><path d="m394.5 315h40a27.54 27.54 0 0 0 27.5-27.5v-10a47.54 47.54 0 0 0 -24.84-41.74 32.5 32.5 0 1 0 -45.32 0 47.54 47.54 0 0 0 -24.84 41.74v10a27.54 27.54 0 0 0 27.5 27.5zm2.5-102.5a17.5 17.5 0 1 1 17.5 17.5 17.52 17.52 0 0 1 -17.5-17.5zm-15 65a32.5 32.5 0 0 1 65 0v10a12.52 12.52 0 0 1 -12.5 12.5h-40a12.52 12.52 0 0 1 -12.5-12.5z" fill="url(#New_Gradient_Swatch-2)"/><g fill="url(#New_Gradient_Swatch-4)"><path d="m211 370h-10a7.5 7.5 0 0 0 0 15h10a7.5 7.5 0 0 0 0-15z"/><path d="m261 370h-10a7.5 7.5 0 0 0 0 15h10a7.5 7.5 0 0 0 0-15z"/><path d="m311 370h-10a7.5 7.5 0 0 0 0 15h10a7.5 7.5 0 0 0 0-15z"/></g><path d="m181 132.43h90a7.5 7.5 0 0 0 7.5-7.5v-7.08l23.78 13.59a7.45 7.45 0 0 0 3.72 1h25a7.5 7.5 0 0 0 7.5-7.5v-80a7.5 7.5 0 0 0 -7.5-7.5h-25a7.45 7.45 0 0 0 -3.72 1l-23.78 13.56v-7.07a7.5 7.5 0 0 0 -7.5-7.5h-90a7.5 7.5 0 0 0 -7.5 7.5v80a7.5 7.5 0 0 0 7.5 7.5zm127-80h15.5v65h-15.5l-29.5-16.85v-31.3zm-119.49 0h75v65h-75z" fill="url(#New_Gradient_Swatch-7)"/><path d="m221 67.43h-10a7.5 7.5 0 0 0 0 15h10a7.5 7.5 0 0 0 0-15z" fill="url(#New_Gradient_Swatch-8)"/></svg>