<svg id="_x33_0" enable-background="new 0 0 64 64" height="512" viewBox="0 0 64 64" width="512" xmlns="http://www.w3.org/2000/svg" xmlns:xlink="http://www.w3.org/1999/xlink"><linearGradient id="SVGID_1_" gradientUnits="userSpaceOnUse" x1="32" x2="32" y1="63" y2="1"><stop offset="0" stop-color="#9f2fff"/><stop offset="1" stop-color="#0bb1d3"/></linearGradient><path d="m52 1c-4.483 0-8.341 2.699-10.053 6.554-.448-.342-1-.554-1.606-.554-.363 0-.716.072-1.048.215l-4.293 1.84v-6.055h-2v6.912l-2 .857v-5.769h-2v6.626l-2.787 1.194c-.737.317-1.213 1.038-1.213 1.839v16.341h-2v-.929c0-4.347-3.116-8.112-7.331-8.97l-.177-.354c1.715-.541 3.043-1.962 3.407-3.747h1.101c1.654 0 3-1.346 3-3 0-.637-.202-1.225-.542-1.711l.299-1.195c.161-.643.243-1.306.243-1.971 0-4.479-3.644-8.123-8.123-8.123h-5.641c-1.547 0-2.957.755-3.81 2.008-2.464.139-4.426 2.188-4.426 4.686 0 .259.021.516.063.772l.611 3.662c-.415.515-.674 1.161-.674 1.872 0 1.654 1.346 3 3 3h1.101c.364 1.786 1.692 3.206 3.407 3.747l-.177.354c-4.215.858-7.331 4.624-7.331 8.97v.929h2v-.929c0-2.141.971-4.096 2.511-5.421l.787 3.937 2.78-1.668.845 1.268-.24.961c-.347-.087-.702-.148-1.07-.148-1.999 0-3.733 1.354-4.217 3.293l-.233.932c-1.892.641-3.163 2.412-3.163 4.413 0 .31.03.617.091.914l.689 3.448c-.479.532-.78 1.229-.78 2 0 1.654 1.346 3 3 3h1.101c.364 1.786 1.692 3.206 3.407 3.747l-.177.354c-4.215.859-7.331 4.625-7.331 8.97v2.929h62v-2.929c0-4.346-3.116-8.111-7.331-8.97l-.177-.354c1.715-.541 3.043-1.962 3.407-3.747h1.101c1.654 0 3-1.346 3-3 0-.637-.202-1.225-.542-1.711l.299-1.195c.161-.643.243-1.306.243-1.971 0-4.47-3.628-8.106-8.094-8.122 1.305-1.459 2.068-3.352 2.088-5.392l.38.108c2.135.611 3.626 2.588 3.626 4.809v.474h2v-.474c0-1.806-.72-3.485-1.897-4.752 1.211-1.468 1.897-3.327 1.897-5.246v-8.528c0-6.065-4.935-11-11-11zm-25 13.659 13.081-5.606c.413-.177.919.153.919.606v10.869c0 1.919.686 3.778 1.898 5.245-1.178 1.268-1.898 2.946-1.898 4.753v.474h2v-.474c0-2.221 1.491-4.197 3.626-4.808l.38-.108c.02 2.04.783 3.932 2.088 5.392-4.466.015-8.094 3.651-8.094 8.121 0 .665.082 1.328.243 1.97l.299 1.196c-.34.486-.542 1.074-.542 1.711 0 1.654 1.346 3 3 3h1.101c.364 1.786 1.692 3.206 3.407 3.747l-.177.354c-2.156.439-4.02 1.641-5.331 3.29v-5.391h-4v-15.414l-2.586-2.586h-9.414zm25.03 6.341c-1.35 0-2.615-.521-3.563-1.466-.946-.943-1.467-2.199-1.467-3.536v-2.001c0-1.653 1.346-2.997 3-2.997h.119c1.31 1.247 3.075 2 4.98 2h.902c.551 0 .999.449 1 1l.001 2.024c.001 1.329-.517 2.578-1.455 3.518-.939.94-2.188 1.458-3.517 1.458zm-.001 2c.521 0 1.031-.063 1.526-.173l.163.488c.226.678.687 1.236 1.281 1.601v.611c0 .506-.072.996-.186 1.472h-5.628c-.113-.475-.185-.966-.185-1.471v-.61c.595-.365 1.056-.924 1.283-1.603l.166-.498c.513.116 1.041.183 1.58.183zm-.029 7.842c-.785-.477-1.441-1.104-1.937-1.842h3.874c-.495.738-1.151 1.365-1.937 1.842zm-7 14.158h-1c-.552 0-1-.448-1-1s.448-1 1-1h1zm8.382 6 .329.658-1.711 1.14-1.711-1.14.329-.658zm-12.382 0v2h-8v2h8v6h-10v-7.586l2.414-2.414zm2 9.071c0-2.14.971-4.096 2.511-5.421l.787 3.937 2.78-1.668.845 1.267-.703 2.814h-6.22zm5.785-7.013 1.346.897-2.428 1.457-.381-1.904c.463-.201.953-.35 1.463-.45zm2.995 5.942h.439l.5 2h-1.439zm.685-2h-.93l-.74-1.111 1.205-.723 1.205.723zm-16.879-24 1.414 1.414v14.586h-4.414l-3.586 3.586v8.414h-6v-28zm-22.204 18 .329.658-1.711 1.14-1.711-1.14.329-.658zm5.618-8h1c.552 0 1 .448 1 1s-.448 1-1 1h-1zm-.101 4h1.101c.352 0 .686-.072 1-.184v7.576c-1.311-1.649-3.175-2.851-5.331-3.29l-.177-.354c1.715-.542 3.043-1.962 3.407-3.748zm-5.029 6.955 1.346-.897c.509.1 1 .248 1.463.45l-.381 1.904zm-1.87 1.211 1.205.723-.74 1.111h-.93l-.74-1.111zm-.22 3.834h.439l.5 2h-1.439zm2.297-.813.845-1.267 2.78 1.668.787-3.937c1.54 1.325 2.511 3.28 2.511 5.42v.929h-6.22zm6.923-28.116v3.75c-.354-.246-.74-.454-1.163-.597l-.232-.931c-.485-1.939-2.219-3.293-4.218-3.293-.367 0-.722.061-1.07.149l-.24-.961.845-1.268 2.78 1.668.787-3.937c1.54 1.324 2.511 3.28 2.511 5.42zm-7.618-9.071.329.658-1.711 1.14-1.711-1.14.329-.658zm3.297 2.508-.381 1.905-2.428-1.457 1.346-.898c.509.1 1 .248 1.463.45zm3.321-8.508h-1v-2h1c.552 0 1 .449 1 1s-.448 1-1 1zm-17-1c0-.551.448-1 1-1h1v2h-1c-.552 0-1-.449-1-1zm4 2v-5c0-.932.642-1.718 1.506-1.938l1.662 2.493 1.664-1.109-2.297-3.446h-.535c-2.206 0-4 1.794-4 4h-1c-.164 0-.322.023-.478.048l-.486-2.91c-.024-.146-.036-.295-.036-.444 0-1.486 1.209-2.694 2.694-2.694h.924l.276-.553c.447-.892 1.344-1.447 2.342-1.447h5.641c3.376 0 6.123 2.747 6.123 6.123 0 .501-.062 1-.183 1.485l-.12.482c-.225-.054-.456-.09-.697-.09h-1v-2h-2v7c0 1.654-1.346 3-3 3h-4c-1.654 0-3-1.346-3-3zm.321 7.508c.463-.202.953-.35 1.463-.45l1.346.898-2.428 1.457zm4.679 1.658 1.205.723-.74 1.111h-.93l-.74-1.111zm-.22 3.834h.439l.28 1.12c-.06.054-.129.096-.187.154l-.312.312-.313-.313c-.058-.058-.126-.099-.187-.154zm-8.78 15c0-.552.448-1 1-1h1v2h-1c-.552 0-1-.448-1-1zm4 2v-5c0-.933.642-1.718 1.506-1.938l1.662 2.493 1.664-1.109-2.297-3.446h-.535c-2.206 0-4 1.794-4 4h-1c-.128 0-.249.022-.373.038l-.576-2.88c-.033-.17-.051-.345-.051-.52 0-1.146.73-2.16 1.818-2.523l1.019-.339.5-1.998c.261-1.047 1.197-1.778 2.276-1.778.627 0 1.217.244 1.66.688l1.727 1.726 1.727-1.727c.443-.443 1.033-.687 1.66-.687 1.079 0 2.016.731 2.277 1.778l.499 1.997 1.019.339c1.088.364 1.818 1.377 1.818 2.524 0 .176-.018.351-.052.521l-.576 2.878c-.123-.015-.244-.037-.372-.037h-1v-2h-2v7c0 1.654-1.346 3-3 3h-4c-1.654 0-3-1.346-3-3zm1.785 7.058 1.346.897-2.428 1.457-.381-1.904c.463-.201.953-.35 1.463-.45zm-5.785 7.013c0-2.14.971-4.096 2.511-5.421l.787 3.937 2.78-1.668.845 1.267-.703 2.814h-6.22zm58 0v.929h-6.22l-.703-2.813.845-1.267 2.78 1.668.787-3.937c1.54 1.325 2.511 3.28 2.511 5.42zm-4.322-6.563-.381 1.904-2.428-1.457 1.346-.897c.51.1 1 .249 1.463.45zm.322-7.508c0 1.654-1.346 3-3 3h-4c-1.654 0-3-1.346-3-3v-4.541c0-.95.677-1.774 1.608-1.961l1.104-.221c.725 1.04 1.928 1.723 3.288 1.723h3c.552 0 1 .448 1 1zm3-1h-1v-2h1c.552 0 1 .448 1 1s-.448 1-1 1zm1-5.877c0 .501-.062 1.001-.183 1.485l-.12.482c-.225-.054-.456-.09-.697-.09h-1.184c-.414-1.161-1.514-2-2.816-2h-3c-1.103 0-2-.897-2-2v-2h-2v2c0 .127.006.253.018.377l-.802.16c-1.71.342-2.977 1.763-3.175 3.463h-1.041c-.241 0-.472.036-.697.09l-.12-.483c-.121-.483-.183-.983-.183-1.484 0-3.376 2.747-6.123 6.123-6.123h5.754c3.376 0 6.123 2.747 6.123 6.123zm0-18.595c0 1.462-.525 2.878-1.453 3.992-.506-.3-1.041-.558-1.624-.725l-1.633-.467c-.317-.091-.569-.333-.675-.646l-.19-.568c.555-.311 1.074-.696 1.536-1.159 1.317-1.318 2.042-3.07 2.041-4.933l-.001-2.025c-.001-1.653-1.348-2.998-3-2.998h-.901c-2.479 0-4.632-1.765-5.119-4.196l-1.961.393c.141.701.381 1.362.704 1.969-2.141.565-3.724 2.517-3.724 4.832v2.001c-.001 1.873.729 3.632 2.055 4.953.459.457.974.839 1.525 1.148l-.194.584c-.105.313-.357.555-.674.646l-1.635.467c-.583.167-1.118.424-1.624.725-.928-1.115-1.453-2.531-1.453-3.993v-8.528c0-4.962 4.037-9 9-9s9 4.038 9 9zm-46.832-8.973-2-3 1.664-1.109 2 3zm0 30-2-3 1.664-1.109 2 3zm18.832 15.445h2v2h-2zm6 2h-2v-2h2zm-8-20h-2v-2h2zm4 0h-2v-2h2zm-4 4h-2v-2h2zm4 0h-2v-2h2zm-4 4h-2v-2h2zm-4-8h-2v-2h2zm0 4h-2v-2h2zm0 4h-2v-2h2zm8 0h-2v-2h2zm-6-30h2v2h-2zm4 0h2v2h-2zm6 2h-2v-2h2zm-10 2h2v2h-2zm4 0h2v2h-2zm6 2h-2v-2h2zm-10 2h2v2h-2zm4 0h2v2h-2zm6 2h-2v-2h2z" fill="url(#SVGID_1_)"/></svg>